PathFileType	4	(X/Y/Z)	61_1_tpose_p1_0-167_filt_butterworth.trc
DataRate	CameraRate	NumFrames	NumMarkers	Units	OrigDataRate	OrigDataStartFrame	OrigNumFrames
49.0	49.0	7	27	m	49.0	83	167
Frame#	Time	RHip			RKnee			RAnkle			RBigToe			RSmallToe			RHeel			LHip			LKnee			LAnkle			LBigToe			LSmallToe			LHeel			Neck			Head			Nose			RShoulder			RElbow			RWrist			RThumb			RIndex			RPinky			LShoulder			LElbow			LWrist			LThumb			LIndex			LPinky			
		X1	Y1	Z1	X2	Y2	Z2	X3	Y3	Z3	X4	Y4	Z4	X5	Y5	Z5	X6	Y6	Z6	X7	Y7	Z7	X8	Y8	Z8	X9	Y9	Z9	X10	Y10	Z10	X11	Y11	Z11	X12	Y12	Z12	X13	Y13	Z13	X14	Y14	Z14	X15	Y15	Z15	X16	Y16	Z16	X17	Y17	Z17	X18	Y18	Z18	X19	Y19	Z19	X20	Y20	Z20	X21	Y21	Z21	X22	Y22	Z22	X23	Y23	Z23	X24	Y24	Z24	X25	Y25	Z25	X26	Y26	Z26	X27	Y27	Z27	
83	1.6938775510204085	0.3188026462615665	0.6235888242480302	0.9269432960843451	0.33807066631097854	0.7860314472208932	1.369752994925247	0.3207710122989673	0.9554379993159465	1.7814358818675236	0.30125647852046694	0.6689252231650313	1.8200757019799148	0.36969411530147966	0.7205887572723798	1.8075369053456247	0.29384634567099144	1.0179212109198692	1.8160179780700643	0.1101566987648732	0.6016356041797474	0.9265770842643516	0.10001477442232407	0.7419365961888773	1.357442048552514	0.10788125999376943	0.8864676961319553	1.7560143568441307	0.14804352896728706	0.6801483676304505	1.8263922134125643	0.07691328326364587	0.7360932694039517	1.8222999565055882	0.13812735105080803	0.9810327820957365	1.8085734033424674	0.23385101568200878	0.4639561586636407	0.4066750153039185	0.22584303458158966	0.3894712745507552	0.1765214621965336	0.22444646955007608	0.3538887131828453	0.30608577305568796	0.3843672517319015	0.49609353418449786	0.44429214494573266	0.6372093985268675	0.5317244298114726	0.46810894041863726	0.8346523001410396	0.5180205051781598	0.4748793078771534	0.9694812544906738	0.47048623577705584	0.5169268837020772	0.9979045800699444	0.5295660260706267	0.5209394475590867	0.9620833876222449	0.5792782842024341	0.5222282553982409	0.06120032949098562	0.5004396617814822	0.4409451726743868	-0.16569856724226895	0.4550488282239802	0.4629440791760874	-0.40898292506065925	0.42738809201115796	0.4808918388518794	-0.5032480777783683	0.4136126482033397	0.49305080720276145	-0.5226999699988728	0.39315937335276674	0.4868382094410505	-0.509726502233963	0.4247365191334084	0.4870653888903526
84	1.7142857142857142	0.31801223047002747	0.6191891058643088	0.9250947186356642	0.3381066008232105	0.7859747507234103	1.3698143591836205	0.31934268285987477	0.9513498879181812	1.7780153355360806	0.3008036282542162	0.6699088580056084	1.8220298301789557	0.36968195471424614	0.7224119249924477	1.8081792406930368	0.2929728224908811	1.0158971837924229	1.8138942342471223	0.10991937740011484	0.6017985269094861	0.9264372414086577	0.10003849994818584	0.7418895779775525	1.3574277200897416	0.10785301371264103	0.8863449595134978	1.7559166476882426	0.14759298052809675	0.6803987573262871	1.8275478473326512	0.07685812354114846	0.7362761477968527	1.8218236003805532	0.1367666178877562	0.9809640417348419	1.808293015249419	0.23377252576145005	0.4639298211401794	0.40668357660909843	0.22594357567961595	0.38992890713324024	0.17747477326777195	0.22444934409585948	0.35386085008373647	0.30633938722196496	0.38483164529222025	0.49483025984618223	0.44420287335869324	0.6372405438591097	0.5317445966577333	0.4695187539998525	0.8346361896727701	0.5180284713532686	0.4758082472838526	0.9685199340090921	0.4668967569255388	0.51813740802549	0.9979429782231053	0.5257665109094147	0.5210004715896674	0.9545814988246921	0.5611591531200746	0.5225907166501876	0.06118896287428573	0.5005211099287461	0.44088132497162325	-0.1637075133884308	0.4552967463619563	0.46208372121462027	-0.40896114590832194	0.4325706575455485	0.4817014303944237	-0.5008687054497293	0.4136968746537334	0.4955520662749433	-0.5197814152390101	0.39590750275783665	0.4890112723691254	-0.5092741313811415	0.42501298728352593	0.4870577016718233
85	1.7346938775510203	0.31776046124626445	0.618153081475914	0.9238749005220559	0.3380053636272547	0.7863305298223394	1.3700993191567967	0.3184069869333668	0.944929509563781	1.7736123439003633	0.3004605357626946	0.6711141948388313	1.822691734054291	0.3695783443781336	0.7261673182886573	1.8095284092852577	0.2910555345430495	1.010909998364965	1.8125168402246037	0.10956141231351522	0.6014593816433991	0.9261684225412896	0.10006091657645065	0.7418365881876592	1.3574056545859936	0.10791698211653707	0.8865626884557991	1.756341132792142	0.147299825258756	0.6802620869890748	1.8275259538103774	0.07692790295712063	0.736452109629869	1.8213314385272303	0.13670486563331205	0.9816485011637872	1.8087442983209023	0.23377844390817873	0.46392637074522414	0.40669012843340363	0.22604330911732787	0.3906176363648082	0.17867777099669274	0.22447491481241474	0.3538413638291794	0.30734925256418233	0.3856846971389639	0.4922684492984783	0.444155393593206	0.6364618874538754	0.5289527731821332	0.4706830466264308	0.8346108475962069	0.5180173455941274	0.47607432600972954	0.9694276009316449	0.4667645618791438	0.5193645409640466	0.997926720921886	0.5233158999422577	0.5209932839605675	0.9525592567953259	0.5564495973418759	0.5221877549972781	0.06119996497167852	0.5005802760059516	0.4408238983901894	-0.16075144607356265	0.450830197318537	0.4619616641681411	-0.4088958692713991	0.43354252483982325	0.4828183557052851	-0.49942240531981025	0.41800844899945383	0.4970379005657326	-0.5165969531065108	0.39573612809173825	0.4912977669512226	-0.5069979821051941	0.42750317228782114	0.4867077073286339
86	1.7551020408163265	0.3177153275167714	0.6185915084682012	0.9235833267499552	0.3379450124696771	0.787429302241016	1.3705226415033596	0.318468313447752	0.9400085696259406	1.77018436995303	0.3003415428245574	0.6720354638234508	1.8213014876971998	0.36955466123973413	0.7285754927333374	1.8107531595119648	0.28919886307993764	1.0048424163808867	1.8124316636950775	0.10933287941185002	0.6007304925816495	0.9264131708848504	0.10006218851433	0.7418200373358266	1.3574270226968466	0.10818146459774078	0.8877796646722529	1.7579840305764494	0.14749536860137635	0.6812337610059483	1.8279458700648121	0.07694637093731362	0.7376563701344205	1.8207720899735635	0.1381607888708754	0.983596046853276	1.8105740027224269	0.23381652684324664	0.4639608595771216	0.40677084495726357	0.22613745900335608	0.3911218119005642	0.1793758524748316	0.22453540421259044	0.3538587478290827	0.30874695653382067	0.3861082350221854	0.49103174045129927	0.4442359748704699	0.6351155266821065	0.5242433325264929	0.4712641552023475	0.8345719179507995	0.5180116670644113	0.4760001139850404	0.9700423814479515	0.46716991019067	0.5200702010855127	0.9977749310773877	0.5224862991776126	0.52101491838934	0.9556836493853897	0.5638714701992451	0.5219021395750159	0.061225727885869045	0.5006103388649163	0.44077839195073776	-0.15802523328203663	0.4467839360330069	0.46233361748866453	-0.4088399551621518	0.42953012615323455	0.48371277673663277	-0.5005117847243364	0.4254460176317156	0.49712512065273207	-0.5145440209868246	0.3951245923332142	0.4923567429200274	-0.5031466315369362	0.4324121536663052	0.487315942190114
87	1.7755102040816326	0.3176955206253338	0.618845545583557	0.9237554177506437	0.3380803242302494	0.7887975064126085	1.3708378958121794	0.3190486928804034	0.9386622569451804	1.7687599424446419	0.30038861484777274	0.672403082660921	1.8186989259714377	0.36971366774079745	0.7273051152078451	1.8115530431499829	0.2883758830941494	1.0012081947211433	1.812938917859816	0.10938383477535171	0.6005466468420476	0.9274762027586332	0.1000382345052553	0.7418568568593776	1.357523740960247	0.10856378632904243	0.8897855030463835	1.7603983898184192	0.14833561176955848	0.6857289567699982	1.8306185519222207	0.0768759442386504	0.7415653874862057	1.8205709227931057	0.1403379281551598	0.9856369370816399	1.8130711507628812	0.233852284057955	0.4640194707326021	0.40688530153142155	0.22622327704396183	0.39126776789860196	0.17974743048383302	0.22457969894757274	0.3539190785681783	0.30966086492141864	0.38619559334741504	0.4909815823192543	0.4444650595341177	0.6341366150890603	0.5209755668387182	0.47174786377656036	0.8345270509922379	0.5180292106820262	0.4759234587847755	0.9697869708276192	0.4671214791929428	0.5191397318653503	0.99754495485906	0.5220654941769655	0.5210074350017123	0.9601883085857734	0.574411776047673	0.5221191619146015	0.061243743856949966	0.5006400390666889	0.4407386013660581	-0.15726811526896917	0.44513055523570666	0.46278574122500105	-0.4088177078251109	0.4255202517412463	0.4842534240638638	-0.5025146803226946	0.4283092923069705	0.49686996283489554	-0.5139000375171495	0.39581241115641963	0.4923584016683985	-0.4998711831409094	0.43739523235517275	0.4893145422075922
88	1.7959183673469388	0.3177120953597815	0.6187553182627202	0.9239776068652958	0.3382520123532622	0.7896127426768134	1.370923022476285	0.31913971494849735	0.9404357439897624	1.7686376160224735	0.30046684621696895	0.6723114682580394	1.8166227069145018	0.37001553946983373	0.7248408691997414	1.812472857904603	0.28833389591866104	1.0006693317051167	1.8133851342902783	0.10961599325284749	0.6011362462061334	0.9282993955510495	0.09999704774371775	0.7419290918022605	1.3576304379806303	0.10882929335119156	0.8911186212045648	1.7620577980968943	0.14947443433780466	0.6926819087870278	1.8347371126213323	0.07722395788238595	0.7471835764446423	1.8221829197466515	0.1417813992417727	0.9861517761120006	1.814447738693946	0.2338692242485661	0.4640536696913957	0.40692897954916063	0.2262783869679091	0.39124058846868087	0.18056539321724846	0.22456105844662333	0.35400647017668335	0.31010309035389416	0.3862354391699112	0.49088738832288537	0.4446799069607053	0.6338693823250852	0.5204012834292987	0.4727923510232054	0.8345047490041145	0.5181184034029896	0.47618688093021116	0.969555197337232	0.4675321062503265	0.5168327927361998	0.9978415336113122	0.5225964575399027	0.5208335618611618	0.9635512886905158	0.5822358265899551	0.522840113140774	0.06124489646253165	0.5006714419024118	0.44071326315200865	-0.15871845928098297	0.44464391476877835	0.46313225129650243	-0.4088257884591103	0.42427419476307165	0.4845793078627805	-0.5029682724799305	0.4226643493728928	0.49706290923840646	-0.513555137886775	0.3943405954652539	0.49246289114094666	-0.49885081286258753	0.4395046238831172	0.49125824260169787
89	1.816326530612245	0.3178320392829412	0.6187493090134537	0.92413352656742	0.33829763547016656	0.7897326932780999	1.3708695941410194	0.31757600488501453	0.9436942877072754	1.7686995212375647	0.30038046658297957	0.6722730689691382	1.8169854831807584	0.3701576518735301	0.7238746937644552	1.8130241696749456	0.2885037756983499	1.0012405683789776	1.813646717654253	0.10985026568937	0.6016583877284981	0.9279415175314822	0.0999571365222782	0.7419821460013718	1.357679638798268	0.10889563769657278	0.890948613680306	1.762357436239704	0.1502291049504263	0.6976106811611802	1.837585527250586	0.07808921321004005	0.7510359271355118	1.8254385983053103	0.1420702333790941	0.9853966743158944	1.8143729760163836	0.2338668226981566	0.4640667367233222	0.40691534520780775	0.2262949431434958	0.3912469855637343	0.18176062177891053	0.2245025002817865	0.3541297375640001	0.31089284801124434	0.38621976525529966	0.490593267947908	0.44476069344961416	0.6338826539748831	0.5208197042958986	0.47426591679786717	0.8345248747705399	0.5183178952836123	0.4771169965546924	0.9703797823939787	0.4696223423044778	0.5149849412287602	0.9992562518517937	0.5256785130841266	0.5204844178783475	0.9652156411239919	0.5861291630536609	0.5237480012104795	0.06123414425655999	0.5006863467335739	0.44070549872298265	-0.16100011464890987	0.4448180420574844	0.46299967606007586	-0.4088332660111953	0.4244854058872038	0.48471444623755344	-0.5021104773624145	0.41232375299984403	0.49803793781667544	-0.5121254809065795	0.38643144659610495	0.4932709679683367	-0.49996941932168204	0.4376567727375829	0.4915130550798236
